# xmcd CD database file
#
# Track frame offsets:
#	150
#	21421
#	54376
#	81337
#	101280
#	121138
#	129553
#	178869
#	223808
#
# Disc length: 3117 seconds
#
# Revision: 0
# Processed by: cddbd v1.5.1PL2 Copyright (c) Steve Scherf et al.
# Submitted via: CDex 1.51
#
DISCID=7b0c2b09
DTITLE=Rob Papen - DayDreamer
DYEAR=1900
DGENRE=New Age
TTITLE0=Maranatha song
TTITLE1=Evening song (improvisation on Psalm-IV)
TTITLE2=DayDreamer
TTITLE3=Sion
TTITLE4=Effata "Be opened"
TTITLE5=Isaiah (53:5)
TTITLE6=Time, times and half a time
TTITLE7=At Ease
TTITLE8=Red Clouds
EXTD=
EXTT0=
EXTT1=
EXTT2=
EXTT3=
EXTT4=
EXTT5=
EXTT6=
EXTT7=
EXTT8=
PLAYORDER=
